<?xml version="1.0" encoding="utf-8"?>
<!-- Generator: Adobe Illustrator 18.1.1, SVG Export Plug-In . SVG Version: 6.00 Build 0)  -->
<!DOCTYPE svg PUBLIC "-//W3C//DTD SVG 1.1//EN" "http://www.w3.org/Graphics/SVG/1.1/DTD/svg11.dtd">
<svg version="1.1" id="Layer_1" xmlns="http://www.w3.org/2000/svg" xmlns:xlink="http://www.w3.org/1999/xlink" x="0px" y="0px"
	 viewBox="0 0 60 60" enable-background="new 0 0 60 60" xml:space="preserve">
<path fill="#A7ABAE" stroke="#FFFFFF" stroke-width="2" stroke-miterlimit="10" d="M35.1,51.6H12.4c-2.8,0-5-2.2-5-5V9
	c0-2.8,2.2-5,5-5h22.7c2.8,0,5,2.2,5,5v37.6C40.1,49.4,37.9,51.6,35.1,51.6z"/>
<path fill="#A7ABAE" stroke="#FFFFFF" stroke-width="2" stroke-miterlimit="10" d="M22,57.2L9,50.3c-1.6-0.9-2.7-2.6-2.7-4.4V9.6
	c0-3.8,4-6.2,7.3-4.4l13,6.9c1.6,0.9,2.7,2.6,2.7,4.4v36.3C29.3,56.5,25.3,58.9,22,57.2z"/>
<path fill="#A7ABAE" d="M43,37.2V19.1c0-1.5,1.8-2.2,2.9-1.2L55,27c0.7,0.7,0.7,1.7,0,2.4l-9.1,9.1C44.8,39.5,43,38.7,43,37.2z"/>
</svg>
