<?xml version="1.0" encoding="UTF-8"?>
<!-- Generator: Adobe Illustrator 18.1.1, SVG Export Plug-In . SVG Version: 6.00 Build 0)  -->
<!DOCTYPE svg PUBLIC "-//W3C//DTD SVG 1.1//EN" "http://www.w3.org/Graphics/SVG/1.1/DTD/svg11.dtd">
<svg version="1.1" id="Layer_1_copy" xmlns="http://www.w3.org/2000/svg" xmlns:xlink="http://www.w3.org/1999/xlink" x="0px" y="0px" viewBox="0 0 49 49.3" enable-background="new 0 0 49 49.3" xml:space="preserve">
<g>
	<g>
		<linearGradient id="SVGID_1_" gradientUnits="userSpaceOnUse" x1="24.3872" y1="1.4665" x2="24.3872" y2="48.1225">
			<stop offset="0" style="stop-color:#FFE081"/>
			<stop offset="0.1116" style="stop-color:#FFD974"/>
			<stop offset="0.515" style="stop-color:#FEC446"/>
			<stop offset="0.8242" style="stop-color:#FCB729"/>
			<stop offset="1" style="stop-color:#FBB21F"/>
		</linearGradient>
		<path fill="url(#SVGID_1_)" d="M47.7,43.1c0,2.8-2.3,5-5,5H6.1c-2.8,0-5-2.3-5-5V6.5c0-2.8,2.3-5,5-5h36.7c2.8,0,5,2.3,5,5V43.1z"/>
		<path fill="none" stroke="#F69322" stroke-width="2" stroke-miterlimit="10" d="M47.7,43.1c0,2.8-2.3,5-5,5H6.1c-2.8,0-5-2.3-5-5    V6.5c0-2.8,2.3-5,5-5h36.7c2.8,0,5,2.3,5,5V43.1z"/>
	</g>
	<path fill="#F69322" d="M42.7,49.1H6.1c-3.3,0-6-2.7-6-6V6.5c0-3.3,2.7-6,6-6h36.7c3.3,0,6,2.7,6,6v36.7   C48.7,46.4,46,49.1,42.7,49.1z M6.1,2.5c-2.2,0-4,1.8-4,4v36.7c0,2.2,1.8,4,4,4h36.7c2.2,0,4-1.8,4-4V6.5c0-2.2-1.8-4-4-4H6.1z"/>
</g>
</svg>